<?xml version="1.0" encoding="UTF-8"?>
<svg width="82px" height="71px" viewBox="0 0 82 71" version="1.1" xmlns="http://www.w3.org/2000/svg" xmlns:xlink="http://www.w3.org/1999/xlink">
    <!-- Generator: sketchtool 50.2 (55047) - http://www.bohemiancoding.com/sketch -->
    <title>DD5B687E-2625-4D8B-BE9D-92E24188FE3E</title>
    <desc>Created with sketchtool.</desc>
    <defs></defs>
    <g id="UI---Not-signed-In-/-Static" stroke="none" stroke-width="1" fill="none" fill-rule="evenodd">
        <g id="4.1-HIW---I'm-an-Activation-Host" transform="translate(-428.000000, -4228.000000)" stroke="#971B50" stroke-width="2">
            <g id="Group" transform="translate(428.000000, 4228.000000)">
                <path d="M18.6985507,3 L18.6985507,11.65 L3,11.65 C1.8954305,11.65 1,12.5454305 1,13.65 L1,68 C1,69.1045695 1.8954305,70 3,70 L78.4133333,70 C79.5179028,70 80.4133333,69.1045695 80.4133333,68 L80.4133333,13.65 C80.4133333,12.5454305 79.5179028,11.65 78.4133333,11.65 L62.7147826,11.65 L62.7147826,3 C62.7147826,1.8954305 61.8193521,1 60.7147826,1 L20.6985507,1 C19.5939812,1 18.6985507,1.8954305 18.6985507,3 Z" id="Combined-Shape"></path>
                <circle id="Oval" cx="41.18" cy="41.18" r="19.4066667"></circle>
            </g>
        </g>
    </g>
</svg>