<svg xmlns="http://www.w3.org/2000/svg" xmlns:xlink="http://www.w3.org/1999/xlink" width="74" height="73" viewBox="0 0 74 73">
    <defs>
        <path id="a" d="M.47.156h72.844V73H.471z"/>
    </defs>
    <g fill="none" fill-rule="evenodd">
        <g>
            <mask id="b" fill="#fff">
                <use xlink:href="#a"/>
            </mask>
            <path fill="#18A1B8" d="M36.893 71C17.913 71 2.47 55.559 2.47 36.578c0-18.98 15.442-34.422 34.422-34.422 18.98 0 34.422 15.442 34.422 34.422C71.315 55.559 55.873 71 36.893 71m0-70.844C16.81.156.47 16.495.47 36.578S16.81 73 36.893 73s36.422-16.339 36.422-36.422S56.975.156 36.893.156" mask="url(#b)"/>
        </g>
        <path fill="#18A1B8" d="M36.893 66.835c-16.684 0-30.257-13.573-30.257-30.257 0-16.683 13.573-30.257 30.257-30.257S67.15 19.895 67.15 36.578c0 16.684-13.573 30.257-30.257 30.257m0-62.514c-17.787 0-32.257 14.47-32.257 32.257s14.47 32.257 32.257 32.257S69.15 54.365 69.15 36.578c0-17.786-14.47-32.257-32.257-32.257"/>
        <path fill="#18A1B8" d="M37.736 50.92V37.614c3.367.346 6.002 3.198 6.002 6.654 0 3.457-2.635 6.309-6.002 6.654zm-2-15.425c-3.214-.485-5.689-3.26-5.689-6.606 0-3.348 2.475-6.121 5.69-6.606v13.212zm2 .118v-13.33c3.214.485 5.69 3.258 5.69 6.606a1 1 0 0 0 2 0c0-4.453-3.369-8.13-7.69-8.627v-2.407a1 1 0 0 0-2 0v2.407c-4.32.498-7.689 4.174-7.689 8.627 0 4.452 3.368 8.129 7.69 8.627v13.309c-3.063-.612-5.377-3.32-5.377-6.558a1 1 0 0 0-2 0c0 4.344 3.207 7.943 7.376 8.579V55.3a1 1 0 0 0 2 0v-2.38c4.47-.352 8.002-4.095 8.002-8.654 0-4.56-3.532-8.302-8.002-8.654z"/>
    </g>
</svg>
