<svg xmlns="http://www.w3.org/2000/svg" width="80" height="70" viewBox="0 0 80 70">
    <g fill="#18A1B8" fill-rule="evenodd">
        <path d="M39.874 69.382c17.871 0 32.708-13.389 34.511-31.144a1.001 1.001 0 0 0-.894-1.096.999.999 0 0 0-1.096.894c-1.698 16.73-15.68 29.346-32.52 29.346-16.79 0-30.934-12.917-32.53-29.536l3.502 3.502a1 1 0 0 0 1.414-1.414l-5.277-5.277a1 1 0 0 0-1.415 0L.293 39.934a1 1 0 0 0 1.415 1.414l3.616-3.617c1.548 17.785 16.63 31.651 34.55 31.651M77.96 28.034l-3.617 3.617C72.796 13.866 57.713 0 39.793 0 21.921 0 7.083 13.388 5.281 31.143c-.056.55.345 1.04.894 1.097a1.002 1.002 0 0 0 1.095-.894C8.971 14.616 22.951 2 39.793 2c16.79 0 30.934 12.916 32.53 29.535l-3.502-3.501a.999.999 0 1 0-1.415 1.414l5.277 5.276a.993.993 0 0 0 .707.293.995.995 0 0 0 .707-.293l5.277-5.276a.999.999 0 1 0-1.414-1.414"/>
    </g>
</svg>
