<?xml version="1.0" encoding="UTF-8"?>
<svg width="316px" height="410px" viewBox="0 0 316 410" version="1.1" xmlns="http://www.w3.org/2000/svg" xmlns:xlink="http://www.w3.org/1999/xlink">
    <!-- Generator: sketchtool 50.2 (55047) - http://www.bohemiancoding.com/sketch -->
    <title>7A30A956-1CF3-4772-9D3D-7EA4721C97EB</title>
    <desc>Created with sketchtool.</desc>
    <defs>
        <polygon id="path-1" points="0 409.6 316.16 409.6 316.16 0 0 0"></polygon>
    </defs>
    <g id="Symbols" stroke="none" stroke-width="1" fill="none" fill-rule="evenodd">
        <g id="icecream_sign">
            <path d="M117.8417,110.1364 C118.1127,110.1364 118.3747,110.1574 119.0047,110.1984 C121.0317,110.3414 123.0087,109.1994 123.9197,107.3354 C124.8307,105.4774 124.5287,103.2554 123.1617,101.6984 C120.2637,98.4064 118.6667,94.1984 118.6667,89.8504 C118.6667,78.8684 128.3377,70.0114 139.9807,72.2174 C141.9007,72.5864 143.8107,71.8384 144.9877,70.3184 C146.1657,68.7924 146.3857,66.7344 145.5617,64.9934 C144.4407,62.6334 143.8717,60.1344 143.8717,57.5694 C143.8717,49.4904 149.4267,42.6854 156.9227,40.7704 C158.7357,47.7804 164.4447,59.2434 182.4617,63.5854 C189.2917,65.2284 200.7497,69.6574 200.7497,80.8194 C200.7497,86.1694 198.2977,91.1154 194.0127,94.3874 C192.1487,95.8104 191.4927,98.3244 192.4147,100.4804 C193.3467,102.6354 195.6047,103.9004 197.9347,103.5114 C199.2707,103.2964 200.4377,103.1934 201.5237,103.1934 C209.8947,103.1934 217.1187,107.8734 220.9477,114.7034 C214.3897,116.4644 210.3397,120.8264 206.9657,124.5234 C203.0897,128.7624 200.2947,131.8294 194.3607,131.8294 C188.4317,131.8294 185.6307,128.7624 181.7597,124.5234 C177.4337,119.7824 172.0527,113.8844 161.5977,113.8844 C151.1527,113.8844 145.7717,119.7824 141.4397,124.5284 C137.1907,129.1934 134.5077,131.8294 128.8547,131.8294 C122.9257,131.8294 120.1307,128.7674 116.2597,124.5284 C113.3207,121.3084 109.8497,117.5914 104.6787,115.5174 C108.0887,112.1994 112.7217,110.1364 117.8417,110.1364 Z M102.9887,172.3854 L219.2127,172.3854 L219.2127,158.1414 L102.9887,158.1414 L102.9887,172.3854 Z M187.9347,259.4564 L134.4567,259.4564 L114.1867,182.6304 L208.0357,182.6304 L187.9347,259.4564 Z M108.7027,131.4304 C113.0297,136.1714 118.4097,142.0744 128.8607,142.0744 C139.3097,142.0744 144.6857,136.1764 149.0177,131.4304 C153.2667,126.7664 155.9497,124.1294 161.6027,124.1294 C167.5307,124.1294 170.3317,127.1964 174.2027,131.4354 C178.5297,136.1764 183.9097,142.0744 194.3647,142.0744 C204.8207,142.0744 210.2067,136.1764 214.5287,131.4304 C217.5787,128.0874 219.9907,125.5014 223.7747,124.5444 C223.7897,124.8824 223.8767,125.2044 223.8767,125.5474 C223.8767,137.8764 213.8467,147.9014 201.5237,147.9014 L117.8417,147.9014 C107.4277,147.9014 98.9597,139.4284 98.9597,129.0184 C98.9597,127.4774 99.1947,125.9984 99.5487,124.5644 C103.2807,125.5324 105.6717,128.1074 108.7027,131.4304 Z M88.7147,129.0184 C88.7147,136.4024 91.4997,143.1354 96.0467,148.2704 C94.1257,149.0074 92.7537,150.8404 92.7537,153.0214 L92.7537,177.5054 C92.7537,180.3314 95.0427,182.6254 97.8737,182.6254 L103.5977,182.6254 L125.5627,265.8764 C126.1567,268.1244 128.1897,269.6904 130.5137,269.6904 L191.8927,269.6904 C194.2217,269.6904 196.2597,268.1194 196.8487,265.8664 L218.6237,182.6254 L224.3377,182.6254 C227.1687,182.6254 229.4577,180.3314 229.4577,177.5054 L229.4577,153.0214 C229.4577,150.4464 227.5277,148.4034 225.0497,148.0444 C230.6517,142.1874 234.1167,134.2724 234.1167,125.5474 C234.1167,109.7374 222.8017,96.5224 207.8417,93.5684 C209.8837,89.7024 210.9857,85.3554 210.9857,80.8194 C210.9857,67.7374 201.2157,57.5744 184.8527,53.6324 C167.1167,49.3664 166.3487,36.5004 166.3187,35.0514 C166.2617,32.2664 163.9837,30.0034 161.1977,30.0034 C145.9917,30.0034 133.6217,42.3734 133.6217,57.5744 C133.6217,58.9924 133.7297,60.3954 133.9447,61.7784 C119.6387,63.1294 108.4157,75.2024 108.4157,89.8504 C108.4157,93.6344 109.1787,97.3514 110.6427,100.7924 C102.0677,102.9784 95.0887,109.0254 91.4537,116.9154 C91.4277,116.9764 91.3967,117.0324 91.3717,117.0994 C89.7227,120.7554 88.7147,124.7594 88.7147,129.0184 Z" id="Fill-1" fill="#971B50"></path>
            <path d="M174.5917,78.4333 C177.5307,79.1753 181.0377,80.7063 181.0377,83.7733 C181.0377,86.6003 183.3267,88.8933 186.1577,88.8933 C188.9887,88.8933 191.2787,86.6003 191.2787,83.7733 C191.2787,76.4563 185.9787,70.7483 177.1007,68.5053 C164.4077,65.2953 160.4297,58.3983 160.2667,58.1063 C159.3607,56.4893 157.6397,55.4653 155.7857,55.4653 C152.9547,55.4653 150.6667,57.7583 150.6667,60.5853 C150.6667,61.5373 150.9267,62.4283 151.3777,63.1913 C152.5347,65.2243 158.5507,74.3733 174.5917,78.4333" id="Fill-3" fill="#971B50"></path>
            <mask id="mask-2" fill="white">
                <use xlink:href="#path-1"></use>
            </mask>
            <g id="Clip-6"></g>
            <path d="M10.24,363.664 L305.92,363.664 L305.92,297.652 L10.24,297.652 L10.24,363.664 Z M10.24,287.406 L305.92,287.406 L305.92,10.239 L10.24,10.239 L10.24,287.406 Z M310.999,408.698 C313.83,408.698 316.119,406.405 316.119,403.579 L316.119,368.978 C316.119,368.906 316.16,368.85 316.16,368.779 L316.16,5.12 C316.16,2.294 313.871,0 311.04,0 L5.12,0 C2.288,0 0,2.294 0,5.12 L0,368.414 L0,368.783 L0,404.48 C0,407.306 2.288,409.6 5.12,409.6 C7.952,409.6 10.24,407.306 10.24,404.48 L10.24,373.899 L305.879,373.899 L305.879,403.573 C305.879,406.405 308.168,408.698 310.999,408.698 Z" id="Fill-5" fill="#971B50" mask="url(#mask-2)"></path>
            <path d="M236.4872,327.6389 L86.1182,327.6389 C83.2872,327.6389 80.9982,329.9329 80.9982,332.7589 C80.9982,335.5849 83.2872,337.8789 86.1182,337.8789 L236.4872,337.8789 C239.3192,337.8789 241.6072,335.5849 241.6072,332.7589 C241.6072,329.9329 239.3192,327.6389 236.4872,327.6389" id="Fill-7" fill="#971B50" mask="url(#mask-2)"></path>
        </g>
    </g>
</svg>