<?xml version="1.0" encoding="UTF-8"?>
<svg width="226px" height="410px" viewBox="0 0 226 410" version="1.1" xmlns="http://www.w3.org/2000/svg" xmlns:xlink="http://www.w3.org/1999/xlink">
    <!-- Generator: sketchtool 50.2 (55047) - http://www.bohemiancoding.com/sketch -->
    <title>CA053A39-E8CD-4101-BD90-336DF3910D95</title>
    <desc>Created with sketchtool.</desc>
    <defs>
        <polygon id="path-1" points="0 0.4 225.751 0.4 225.751 409.9998 0 409.9998"></polygon>
    </defs>
    <g id="Symbols" stroke="none" stroke-width="1" fill="none" fill-rule="evenodd">
        <g id="Icecream">
            <path d="M70.9264,87.8127 C73.7564,87.8127 76.0464,85.5207 76.0464,82.6927 C76.0464,76.0377 82.7064,72.9547 88.2964,71.5407 C112.3814,65.4477 121.1814,51.9297 122.8164,49.0407 C123.2664,48.2777 123.5274,47.3877 123.5274,46.4377 C123.5274,43.6097 121.2374,41.3177 118.4064,41.3177 C116.5514,41.3177 114.8264,42.3497 113.9214,43.9697 C113.6414,44.4697 106.8314,56.2907 85.7864,61.6147 C73.0864,64.8247 65.8064,72.5077 65.8064,82.6927 C65.8064,85.5207 68.0964,87.8127 70.9264,87.8127" id="Fill-1" fill="#971B50"></path>
            <g id="Group-5" transform="translate(0.000000, -0.400000)">
                <mask id="mask-2" fill="white">
                    <use xlink:href="#path-1"></use>
                </mask>
                <g id="Clip-4"></g>
                <path d="M48.9312,111.0198 C50.8212,111.0198 52.8512,111.1998 55.1362,111.5678 C57.4712,111.9598 59.7262,110.6928 60.6562,108.5348 C61.5812,106.3798 60.9262,103.8698 59.0612,102.4448 C49.2412,94.9398 45.0512,82.6928 48.1162,70.4828 C50.8562,59.5798 60.5812,51.1948 72.8812,49.1228 C107.5162,43.2848 115.7712,21.4198 117.7312,10.9698 C132.5212,13.1578 143.9072,25.9368 143.9072,41.3248 C143.9072,45.8678 142.9022,50.2848 140.9112,54.4568 C140.0862,56.1978 140.3062,58.2578 141.4812,59.7848 C142.6612,61.3118 144.5912,62.0548 146.4922,61.6868 C148.5062,61.3048 150.4962,61.1128 152.4112,61.1128 C169.4162,61.1128 181.2962,73.5178 181.2962,91.2798 C181.2962,97.5878 177.2262,105.9678 170.4162,113.6978 C169.0512,115.2428 168.7712,117.4528 169.6662,119.3078 C170.5612,121.1648 172.5112,122.2828 174.5562,122.1948 C175.4562,122.1468 181.6012,122.0848 182.3562,122.0848 C200.6362,122.0848 215.5112,136.9568 215.5112,155.2398 C215.5112,173.1978 200.8962,188.0578 182.9312,188.3628 C180.1362,188.4098 177.8962,190.6898 177.8962,193.4828 L177.8962,204.6298 C177.8962,211.9798 171.9162,217.9578 164.5662,217.9578 C157.2212,217.9578 151.2422,211.9798 151.2422,204.6298 L151.2422,193.5148 C151.2422,190.6868 148.9522,188.3948 146.1212,188.3948 L117.1122,188.3948 C114.2822,188.3948 111.9912,190.6868 111.9912,193.5148 L111.9912,248.7178 C111.9912,252.4098 110.5162,255.8448 107.8362,258.3878 C105.1612,260.9308 101.6062,262.2078 97.9412,262.0268 C90.9862,261.6628 85.3312,255.2258 85.3312,247.6748 L85.3312,193.5148 C85.3312,190.6868 83.0412,188.3948 80.2112,188.3948 L50.4312,188.3948 C29.2512,188.3948 11.6362,172.5378 10.3262,152.2898 C9.6212,141.4528 13.3062,131.1428 20.6912,123.2598 C28.0912,115.3678 38.1212,111.0198 48.9312,111.0198 Z M203.2462,237.2798 L122.2312,237.2798 L122.2312,198.6348 L141.0012,198.6348 L141.0012,204.6298 C141.0012,217.6248 151.5722,228.1968 164.5662,228.1968 C177.5612,228.1968 188.1362,217.6248 188.1362,204.6298 L188.1362,198.6348 L203.2462,198.6348 L203.2462,237.2798 Z M146.4712,399.7598 L79.2862,399.7598 L40.2072,247.5198 L75.0912,247.5198 L75.0912,247.6748 C75.0912,260.8028 84.8912,271.5978 97.4012,272.2528 C97.8312,272.2748 98.2562,272.2878 98.6812,272.2878 C104.7462,272.2878 110.4612,270.0158 114.8862,265.8148 C119.5512,261.3848 122.2312,255.1518 122.2312,248.7178 L122.2312,247.5198 L185.5452,247.5198 L146.4712,399.7598 Z M23.7162,198.6348 L50.4312,198.6348 L75.0912,198.6348 L75.0912,237.2798 L23.7162,237.2798 L23.7162,198.6348 Z M0.1062,152.9528 C1.0402,167.4028 8.4842,180.0828 19.5622,188.3948 L18.5962,188.3948 C15.7662,188.3948 13.4762,190.6868 13.4762,193.5148 L13.4762,242.3998 C13.4762,245.2278 15.7662,247.5198 18.5962,247.5198 L29.6342,247.5198 L70.3562,406.1518 C70.9362,408.4178 72.9812,409.9998 75.3162,409.9998 L150.4412,409.9998 C152.7772,409.9998 154.8222,408.4178 155.4022,406.1518 L196.1182,247.5198 L208.3672,247.5198 C211.1972,247.5198 213.4872,245.2278 213.4872,242.3998 L213.4872,193.5148 C213.4872,191.2038 211.9272,189.3258 209.8232,188.6888 C219.5222,180.7028 225.7512,168.6388 225.7512,155.2398 C225.7512,132.0418 207.4562,113.0378 184.5362,111.8998 C188.1262,106.2298 191.5362,98.8578 191.5362,91.2798 C191.5362,68.0728 175.3672,51.1728 153.0062,50.8778 C153.7662,47.7598 154.1462,44.5678 154.1462,41.3248 C154.1462,18.7598 135.7862,0.3998 113.2212,0.3998 C110.4412,0.3998 108.1662,2.6848 108.1012,5.4648 C108.0362,8.2748 106.4412,33.0818 71.1812,39.0218 C54.8712,41.7718 41.9212,53.1428 38.1862,67.9878 C35.2212,79.7798 37.3712,91.6148 43.7962,101.0528 C32.1912,102.2898 21.2612,107.6778 13.2212,116.2578 C3.8762,126.2278 -0.7788,139.2598 0.1062,152.9528 Z" id="Fill-3" fill="#971B50" mask="url(#mask-2)"></path>
            </g>
        </g>
    </g>
</svg>