<?xml version="1.0" encoding="UTF-8"?>
<svg width="410px" height="409px" viewBox="0 0 410 409" version="1.1" xmlns="http://www.w3.org/2000/svg" xmlns:xlink="http://www.w3.org/1999/xlink">
    <!-- Generator: sketchtool 50.2 (55047) - http://www.bohemiancoding.com/sketch -->
    <title>0DC0223D-72A0-4261-B8EA-32F197DD659E</title>
    <desc>Created with sketchtool.</desc>
    <defs></defs>
    <g id="Symbols" stroke="none" stroke-width="1" fill="none" fill-rule="evenodd">
        <g id="Icecream-Stand" fill="#971B50">
            <path d="M10.24,255.898 L399.36,255.898 L399.36,242.678 L10.24,242.678 L10.24,255.898 Z M27.745,87.158 C32.481,91.018 38.446,93.43 45.02,93.43 C54.543,93.43 62.94,88.56 67.881,81.188 C72.822,88.56 81.219,93.43 90.742,93.43 C100.265,93.43 108.662,88.56 113.602,81.188 C118.543,88.56 126.94,93.43 136.463,93.43 C145.987,93.43 154.383,88.56 159.324,81.193 C164.265,88.566 172.667,93.43 182.19,93.43 C191.713,93.43 200.11,88.56 205.051,81.193 C209.992,88.566 218.389,93.43 227.912,93.43 C237.434,93.43 245.832,88.56 250.772,81.188 C255.714,88.56 264.11,93.43 273.634,93.43 C283.156,93.43 291.554,88.56 296.494,81.188 C301.434,88.56 309.832,93.43 319.355,93.43 C328.863,93.43 337.249,88.581 342.195,81.229 C347.095,88.581 355.405,93.43 364.82,93.43 C371.287,93.43 377.16,91.049 381.84,87.234 L381.84,232.433 L27.745,232.433 L27.745,87.158 Z M61.43,71.04 C59.233,78.054 52.751,83.19 45.02,83.19 C37.289,83.19 30.807,78.054 28.611,71.04 L61.43,71.04 Z M27.75,60.8 L62.295,60.8 L62.295,10.24 L27.75,10.24 L27.75,60.8 Z M381.005,71.04 C378.839,78.054 372.454,83.19 364.836,83.19 C357.218,83.19 350.833,78.054 348.672,71.04 L381.005,71.04 Z M346.879,60.8 L381.854,60.8 L381.854,10.24 L346.879,10.24 L346.879,60.8 Z M335.774,71.04 C333.578,78.054 327.097,83.19 319.365,83.19 C311.634,83.19 305.152,78.054 302.956,71.04 L335.774,71.04 Z M290.054,71.04 C287.856,78.054 281.375,83.19 273.643,83.19 C265.912,83.19 259.431,78.054 257.234,71.04 L290.054,71.04 Z M244.326,71.04 C242.13,78.054 235.648,83.19 227.917,83.19 C220.185,83.19 213.704,78.054 211.508,71.04 L244.326,71.04 Z M198.605,71.04 C196.409,78.054 189.927,83.19 182.195,83.19 C174.464,83.19 167.982,78.054 165.781,71.04 L198.605,71.04 Z M152.878,71.04 C150.681,78.054 144.2,83.19 136.469,83.19 C128.737,83.19 122.255,78.054 120.059,71.04 L152.878,71.04 Z M107.157,71.04 C104.96,78.054 98.478,83.19 90.747,83.19 C83.015,83.19 76.534,78.054 74.337,71.04 L107.157,71.04 Z M72.53,60.8 L108.016,60.8 L108.016,10.24 L72.53,10.24 L72.53,60.8 Z M118.256,60.8 L153.743,60.8 L153.743,10.24 L118.256,10.24 L118.256,60.8 Z M163.978,60.8 L199.465,60.8 L199.465,10.24 L163.978,10.24 L163.978,60.8 Z M209.71,60.8 L245.191,60.8 L245.191,10.24 L209.71,10.24 L209.71,60.8 Z M255.427,60.8 L290.913,60.8 L290.913,10.24 L255.427,10.24 L255.427,60.8 Z M301.153,60.8 L336.64,60.8 L336.64,10.24 L301.153,10.24 L301.153,60.8 Z M346.879,398.638 L381.854,398.638 L381.854,266.138 L346.879,266.138 L346.879,398.638 Z M72.53,398.638 L108.016,398.638 L108.016,266.138 L72.53,266.138 L72.53,398.638 Z M118.256,398.638 L291.855,398.638 L291.855,266.138 L118.256,266.138 L118.256,398.638 Z M302.095,398.638 L336.64,398.638 L336.64,266.138 L302.095,266.138 L302.095,398.638 Z M27.745,398.638 L62.289,398.638 L62.289,266.138 L27.745,266.138 L27.745,398.638 Z M22.625,408.878 L386.97,408.878 C389.796,408.878 392.09,406.59 392.09,403.758 L392.09,266.138 L404.474,266.138 C407.302,266.138 409.595,263.849 409.595,261.017 L409.595,237.558 C409.595,234.726 407.302,232.437 404.474,232.437 L392.09,232.437 L392.09,5.12 C392.09,2.288 389.796,0 386.97,0 L22.625,0 C19.799,0 17.505,2.288 17.505,5.12 L17.505,232.433 L5.12,232.433 C2.294,232.433 0,234.722 0,237.553 L0,261.013 C0,263.844 2.294,266.133 5.12,266.133 L17.505,266.133 L17.505,403.758 C17.505,406.584 19.799,408.878 22.625,408.878 Z" id="Fill-1"></path>
            <path d="M180.306,325.9804 L180.372,325.9804 C182.41,326.0774 184.366,324.9714 185.272,323.1134 C186.179,321.2544 185.876,319.0324 184.514,317.4814 C183.383,316.2014 182.764,314.5624 182.764,312.8734 C182.764,308.5674 186.957,305.2284 191.063,306.0064 C192.968,306.3604 194.893,305.6384 196.071,304.1074 C197.248,302.5824 197.473,300.5284 196.649,298.7834 C196.214,297.8664 195.994,296.9094 195.994,295.9254 C195.994,293.6114 197.181,291.5634 198.978,290.3704 C200.735,294.4414 204.621,299.3764 213.243,301.4454 C216.131,302.1464 220.979,303.9384 220.979,308.1314 C220.979,310.1744 220.037,312.0694 218.398,313.3184 C216.535,314.7424 215.875,317.2554 216.802,319.4064 C217.728,321.5564 220.001,322.8264 222.31,322.4424 C222.807,322.3654 223.304,322.3034 223.821,322.3034 C228.946,322.3034 233.119,326.4714 233.119,331.6014 C233.119,336.7324 228.946,340.9004 223.723,340.9004 C204.728,341.2634 183.491,341.3864 180.782,340.9764 C180.49,340.9254 180.199,340.9004 179.901,340.9004 C175.78,340.9004 172.426,337.5454 172.426,333.4244 C172.416,329.3294 175.739,325.9804 180.306,325.9804 Z M185.375,374.2564 L181.253,351.2674 C184.054,351.4214 188.708,351.4774 194.028,351.4774 C204.354,351.4774 216.996,351.2674 222.971,351.1604 L220.349,374.2564 L185.375,374.2564 Z M162.176,333.4294 C162.176,339.6614 165.432,345.1134 170.312,348.2724 L176.051,380.2774 C176.486,382.7194 178.611,384.4914 181.089,384.4914 L224.927,384.4914 C227.533,384.4914 229.724,382.5364 230.016,379.9454 L233.59,348.4164 C239.395,345.0264 243.353,338.7954 243.353,331.5964 C243.353,323.1484 237.957,315.9244 230.435,313.2104 C230.948,311.5924 231.214,309.8824 231.214,308.1264 C231.214,300.0624 225.392,293.8414 215.634,291.4864 C208.276,289.7204 207.795,284.9684 207.769,284.0324 C207.703,281.2564 205.43,279.0194 202.65,279.0194 C193.326,279.0194 185.743,286.6024 185.743,295.9254 L185.743,296.1054 C178.166,297.9184 172.518,304.7484 172.518,312.8684 C172.518,314.2964 172.698,315.7144 173.046,317.0824 C166.666,319.7694 162.176,326.0874 162.176,333.4294 Z" id="Fill-3"></path>
        </g>
    </g>
</svg>