<?xml version="1.0" encoding="UTF-8"?>
<svg width="74px" height="73px" viewBox="0 0 74 73" version="1.1" xmlns="http://www.w3.org/2000/svg" xmlns:xlink="http://www.w3.org/1999/xlink">
    <!-- Generator: sketchtool 50.2 (55047) - http://www.bohemiancoding.com/sketch -->
    <title>756EC8F4-46FB-4CA0-9319-558FA43BC7DB</title>
    <desc>Created with sketchtool.</desc>
    <defs></defs>
    <g id="Symbols" stroke="none" stroke-width="1" fill="none" fill-rule="evenodd" stroke-linecap="round" stroke-linejoin="round">
        <g id="icon_shopping_basket" stroke="#DB0A5B" stroke-width="2">
            <polygon id="Stroke-1" points="64.0492 72.0002 9.9272 72.0002 1.0002 24.8532 72.9762 24.8532"></polygon>
            <polyline id="Stroke-3" points="27.7001 3.9294 14.9491 3.9294 14.9491 24.5744 14.9491 71.2564"></polyline>
            <polyline id="Stroke-5" points="45.8231 3.9294 59.0281 3.9294 59.0281 24.5744 59.0281 72.0004"></polyline>
            <path d="M43.1981,6.8586 L30.7781,6.8586 C29.3281,6.8586 28.1531,5.6836 28.1531,4.2336 L28.1531,3.6256 C28.1531,2.1756 29.3281,1.0006 30.7781,1.0006 L43.1981,1.0006 C44.6481,1.0006 45.8231,2.1756 45.8231,3.6256 L45.8231,4.2336 C45.8231,5.6836 44.6481,6.8586 43.1981,6.8586 Z" id="Stroke-7"></path>
            <path d="M3.5106,36.487 L70.3406,36.487" id="Stroke-9"></path>
            <path d="M5.4637,48.3249 L68.5317,48.3249" id="Stroke-11"></path>
            <path d="M7.6859,60.1623 L66.0019,60.1623" id="Stroke-13"></path>
            <path d="M36.5951,25.3332 L36.5951,71.8982" id="Stroke-15"></path>
        </g>
    </g>
</svg>