<svg xmlns="http://www.w3.org/2000/svg" width="26" height="26" viewBox="0 0 26 26">
    <g fill="#19A2B8" fill-rule="evenodd" transform="matrix(1 0 0 -1 0 26)">
        <circle cx="13" cy="13" r="12.5" fill-opacity=".1" stroke="#19A2B8"/>
        <path d="M13.649 15.686V6h-2.345v9.686h2.345zM14 18.508c0-.201-.041-.39-.123-.566a1.557 1.557 0 0 0-.807-.779 1.478 1.478 0 0 0-.589-.118c-.203 0-.394.04-.574.118a1.522 1.522 0 0 0-.788.779 1.456 1.456 0 0 0 0 1.152 1.498 1.498 0 0 0 .788.788c.18.079.371.118.574.118.209 0 .405-.04.589-.118a1.523 1.523 0 0 0 .807-.788c.082-.183.123-.378.123-.586z"/>
    </g>
</svg>
