<?xml version="1.0" encoding="UTF-8"?>
<svg width="151px" height="24px" viewBox="0 0 151 24" version="1.1" xmlns="http://www.w3.org/2000/svg" xmlns:xlink="http://www.w3.org/1999/xlink">
    <!-- Generator: sketchtool 50.2 (55047) - http://www.bohemiancoding.com/sketch -->
    <title>B85CE8B3-FD7D-41B5-BFF0-CD9D05A7F0F7</title>
    <desc>Created with sketchtool.</desc>
    <defs></defs>
    <g id="Symbols" stroke="none" stroke-width="1" fill="none" fill-rule="evenodd">
        <g id="header/signedout_homepage" transform="translate(-20.000000, -18.000000)" fill="#ffffff">
            <g id="Group-4" transform="translate(20.000000, 18.000000)">
                <g id="Group">
                    <g id="logo_pink">
                        <path d="M74.4793963,8.34513064 C74.2533163,7.88856057 74.0237377,7.43352969 73.8070549,6.97265558 C73.7448605,6.84039905 73.6667633,6.79365321 73.5204286,6.79462233 C72.6387775,6.80052257 71.7570396,6.79741568 70.8753307,6.79764371 C70.6614236,6.79770071 70.6517662,6.80665083 70.6517662,7.01110689 C70.6515928,12.4921995 70.6515928,17.9732922 70.6517084,23.4544133 C70.6517373,23.6638005 70.6605851,23.6726081 70.8704731,23.6726081 C72.2098935,23.6728361 73.5493139,23.6727506 74.8887632,23.6726651 C74.9224772,23.6726651 74.9646919,23.6840095 74.9880545,23.6684181 C75.0328715,23.6385178 75.0827195,23.5990974 75.1011957,23.5524086 C75.1208573,23.5027838 75.1069207,23.440076 75.1070653,23.3830974 C75.1159997,20.2963895 75.1228235,17.2096817 75.1355457,14.1230024 C75.1378589,13.560285 75.2311938,13.0076295 75.4080619,12.471905 C75.6912473,11.6138907 76.2301787,10.9892637 77.1136225,10.6860713 C77.6009132,10.5188409 78.106333,10.4614917 78.6182007,10.4489786 C78.7379054,10.4460428 78.808109,10.4235819 78.8077621,10.2840855 C78.8046972,9.07291211 78.8050152,7.86173872 78.8075307,6.65059382 C78.807791,6.52731591 78.7587236,6.47241805 78.6358962,6.48484561 C78.4112041,6.50753444 78.1848061,6.52090261 77.9624271,6.55770071 C76.6511402,6.77472684 75.5715715,7.39878385 74.6995488,8.38101663 C74.6653144,8.41958195 74.6446697,8.46986223 74.6013274,8.54186223 C74.5372246,8.43913539 74.5037709,8.39432779 74.4793963,8.34513064 Z M16.2419615,8.32600475 C16.0187729,7.87328266 15.7932424,7.4215867 15.5769643,6.96564371 C15.5174878,6.84028504 15.4389858,6.79405226 15.2987232,6.79490736 C14.4169275,6.80018052 13.5350739,6.79747268 12.6532493,6.7976152 C12.4236996,6.79764371 12.4185818,6.80257482 12.4185818,7.02923515 C12.4184951,12.5016057 12.4184951,17.9739762 12.4186108,23.4463468 C12.4186108,23.6647411 12.4265043,23.6726081 12.6441413,23.6726366 C13.9741357,23.6728361 15.3041012,23.6727506 16.6340667,23.6727221 C16.9003373,23.6727221 16.9004819,23.6726081 16.9004819,23.4152779 C16.9005108,20.3655677 16.8997301,17.315886 16.9012915,14.2662043 C16.9015806,13.7034299 16.9783767,13.1491496 17.1376071,12.6086081 C17.3942204,11.7376247 17.8910238,11.0660238 18.7777349,10.7264893 C19.2966288,10.5278195 19.8396081,10.4616057 20.3907413,10.4496627 C20.5274475,10.4466983 20.5803605,10.4024038 20.5768908,10.2660143 C20.5700092,9.99542993 20.5749824,9.72453207 20.5749824,9.45374822 C20.5749824,8.53219952 20.5751848,7.61065083 20.5747222,6.68907363 C20.5746355,6.49912589 20.5494223,6.47481235 20.3569117,6.48587173 C20.2369468,6.49274109 20.1169819,6.50328741 19.9977398,6.51790974 C18.5981779,6.6896152 17.4397024,7.3104228 16.5027674,8.34327791 C16.4587889,8.39173397 16.4135093,8.43902138 16.3479609,8.50916865 C16.3023921,8.43092637 16.2686493,8.38016152 16.2419615,8.32600475 Z M58.3908245,18.1498432 C58.3889451,18.7413207 58.4582524,19.3246746 58.597532,19.8984798 C58.8672434,21.0095772 59.3958524,21.9725131 60.301618,22.7090166 C61.406024,23.6070499 62.7107184,23.9315629 64.1063191,23.9482375 C64.5498626,23.9535392 65.0020803,23.8965891 65.4375857,23.8074869 C67.4725077,23.3911639 68.8121595,22.2106603 69.3994643,20.2299762 C69.6853677,19.2657577 69.7100315,18.2750024 69.6974538,17.2808836 C69.6960948,17.1730831 69.6347389,17.1444371 69.5385993,17.1444941 C68.1989187,17.1452352 66.859238,17.1453492 65.5195574,17.1442375 C65.4133845,17.144152 65.3608186,17.1814917 65.3587078,17.2937387 C65.3538213,17.5545178 65.3587656,17.8173777 65.3264685,18.0753064 C65.2794251,18.4506128 65.2365454,18.8317625 65.1317026,19.1935012 C64.9629595,19.7756865 64.6627435,19.9633254 64.0488088,19.968057 C63.6585252,19.9710499 63.3690365,19.8048171 63.2255354,19.455677 C63.1164711,19.1904228 63.0229916,18.9053017 62.9982989,18.6225748 C62.9274591,17.8107078 62.8683585,16.9960475 62.8535834,16.1816437 C62.8295557,14.8578812 62.8203032,13.5327791 62.9346009,12.2113824 C62.9693847,11.8094822 63.024871,11.4092637 63.1886698,11.0328741 C63.3485363,10.6656057 63.6250426,10.4620333 64.0342939,10.4484371 C64.4532025,10.4344988 64.774092,10.599677 64.9674701,10.9727601 C65.0327583,11.0987743 65.0861917,11.2333397 65.1254282,11.3694727 C65.2859308,11.9264038 65.3149896,12.499924 65.3308345,13.0743278 C65.3358078,13.2547553 65.3476626,13.2704608 65.529128,13.2705463 C66.8543515,13.2710309 68.1795751,13.2710594 69.5047986,13.2704893 C69.6788909,13.2704038 69.6995067,13.2528741 69.6967888,13.0835059 C69.690977,12.7182328 69.6777054,12.3531021 69.6716334,11.987829 C69.6623231,11.4297577 69.580467,10.8813777 69.4371394,10.3428029 C69.0876827,9.02981473 68.3802395,7.96862708 67.1777855,7.26373397 C66.29492,6.74616627 65.3246469,6.52848456 64.3104821,6.48726841 C63.6039931,6.45856532 62.9070168,6.54413302 62.2265794,6.73932542 C60.9546158,7.10422803 59.9344368,7.8047886 59.2439663,8.93572447 C58.672998,9.87098337 58.4285575,10.9028979 58.3984868,11.9790499 C58.3685317,13.051867 58.3919232,14.1261378 58.3918076,15.1997815 C58.3916341,16.1831259 58.3938605,17.1664988 58.3908245,18.1498432 Z M91.9168434,18.2842945 C91.8101501,18.2841235 91.7210944,18.2947553 91.7278314,18.4333967 C91.7472039,18.8309644 91.7308963,19.2334632 91.7888114,19.6254157 C92.0453091,21.3616532 93.0289984,22.5773872 94.6101702,23.3348979 C95.571451,23.7954014 96.5947527,23.9753444 97.6639701,23.9361805 C98.2491352,23.9147458 98.8251057,23.8517815 99.3899152,23.7023943 C100.52497,23.4022518 101.480092,22.8344038 102.155903,21.8632874 C102.769954,20.9809596 103.008843,19.9816532 103.061148,18.9322945 C103.087836,18.3968551 103.065688,17.8609881 102.980247,17.3283135 C102.744394,15.8572447 102.00714,14.7168741 100.70392,13.9463088 C99.7767869,13.3981283 98.7583428,13.1067078 97.7029753,12.9257672 C96.9757259,12.8010641 96.2696417,12.3618242 96.3242027,11.388285 C96.3475075,10.9721615 96.5530873,10.6422898 96.9214251,10.5152209 C97.3642168,10.3624703 97.8410116,10.472209 98.1015283,10.7779952 C98.3255265,11.0408836 98.3778611,11.3572447 98.4013973,11.6813872 C98.4103029,11.8038385 98.4583871,11.8453967 98.5795665,11.8451686 C99.9480167,11.8427743 101.316496,11.8426033 102.684917,11.8453967 C102.815956,11.8456817 102.873467,11.7981093 102.862392,11.6696152 C102.833189,11.3297672 102.825729,10.9865843 102.772065,10.6505273 C102.584469,9.47515439 102.045654,8.48599525 101.109008,7.72309739 C100.085995,6.88988124 98.8810835,6.54601425 97.5798298,6.4871829 C96.9086739,6.45685511 96.2426069,6.52358195 95.5895802,6.68514014 C94.0156947,7.07449881 92.8645056,7.95939192 92.2660399,9.47541093 C91.950673,10.2743658 91.8544177,11.1100048 91.8727493,11.9630594 C91.8858474,12.571753 91.9814377,13.1658812 92.2115078,13.7300238 C92.9138043,15.4522375 94.2722502,16.316266 96.0843596,16.5754489 C96.594984,16.6485036 97.1029772,16.731905 97.5776034,16.9456247 C98.0899048,17.176304 98.4279405,17.5559715 98.5240512,18.1058622 C98.575663,18.4012447 98.5862456,18.7078005 98.5775136,19.0082565 C98.5649648,19.4407696 98.2772687,19.788057 97.854023,19.9024418 C97.689588,19.9469074 97.5128068,19.9622423 97.3414035,19.9634679 C96.8069827,19.9672589 96.368904,19.6359335 96.2469151,19.1218147 C96.1982815,18.9167316 96.1972116,18.6994489 96.1867736,18.4871259 C96.1776078,18.3001995 96.1716804,18.2853207 95.9787939,18.2851496 C95.3041972,18.2845226 94.6296294,18.2848931 93.9550327,18.2849216 C93.2756363,18.2849216 92.5962398,18.2855202 91.9168434,18.2842945 Z M37.2427052,7.89374822 C37.0748295,7.58377197 36.9032238,7.27556295 36.7440224,6.96125416 C36.6812208,6.83723515 36.5990178,6.79428029 36.4607502,6.79504988 C35.5741836,6.799981 34.6875882,6.79738717 33.8010216,6.79767221 C33.5928395,6.79775772 33.5837316,6.80696437 33.5837316,7.01734917 C33.583587,12.4941093 33.5836159,17.9708694 33.5837027,23.4476295 C33.5837316,23.6654822 33.5909601,23.6726081 33.8101296,23.6726366 C35.1351797,23.6728076 36.4602586,23.6727791 37.7853087,23.6727221 C38.0388282,23.6726936 38.0390884,23.6725511 38.0390884,23.4180143 C38.0391463,20.2687696 38.0343465,17.1194964 38.0430497,13.9702803 C38.0448713,13.311905 38.0844837,12.6528741 38.1296766,11.9956675 C38.154456,11.635753 38.2396083,11.2826223 38.4163317,10.9584798 C38.6193671,10.5861093 38.9478611,10.4377767 39.3610158,10.4486936 C39.7610145,10.4592684 40.047207,10.6453397 40.2055989,11.0105273 C40.2509074,11.1149644 40.2923125,11.2222518 40.3220363,11.3317625 C40.5115688,12.0300713 40.5445598,12.748019 40.546873,13.4629169 C40.557629,16.7831259 40.5518462,20.1034204 40.5520486,23.4236865 C40.5520486,23.6724086 40.5523088,23.6726936 40.7979637,23.6726936 C42.1279002,23.6727791 43.457779,23.6727506 44.7876577,23.6727221 C44.8214005,23.6727221 44.8551723,23.6711259 44.8888284,23.6725511 C44.9944808,23.6770831 45.037534,23.6238955 45.0339776,23.524247 C45.0323295,23.4768171 45.0340354,23.4292447 45.0340354,23.3817577 C45.0340643,19.8952589 45.038228,16.4087601 45.0302187,12.9222613 C45.0288019,12.2923895 44.9974011,11.6609786 44.9439677,11.0332447 C44.8804433,10.2866793 44.6971563,9.5632304 44.383264,8.8776057 C43.9764993,7.98909264 43.3774843,7.27262708 42.4656757,6.84735392 C41.6866699,6.484019 40.8676469,6.41378622 40.0251455,6.54324941 C39.0221705,6.69736817 38.1706479,7.12948219 37.5036268,7.89377672 C37.4571906,7.94696437 37.4221466,8.00975772 37.367094,8.08928266 C37.3027021,7.98857957 37.2693641,7.94291686 37.2427052,7.89374822 Z M25.5178034,15.0958575 C25.5143337,16.2247126 25.4950191,17.3548504 25.6390984,18.4774062 C25.6797517,18.7941093 25.7673906,19.1094727 25.8721467,19.4124371 C25.9722187,19.7018052 26.1930941,19.8974252 26.5100802,19.951867 C26.6366665,19.9735867 26.7690067,19.9656627 26.8987157,19.9658907 C27.1679356,19.9663468 27.4035283,19.8668694 27.5363601,19.6404371 C27.6618765,19.4264608 27.7618039,19.1885416 27.8222635,18.9487126 C27.9786313,18.3284751 27.9887224,17.6887411 27.9950257,17.0551639 C28.0067359,15.8880285 27.9942161,14.7202945 27.9696969,13.5532732 C27.9577842,12.9857672 27.9092662,12.4179762 27.8519583,11.8527791 C27.8161047,11.4988219 27.7315597,11.1487411 27.5290737,10.8431259 C27.1725908,10.3050641 26.3083171,10.3020428 25.9634288,10.847829 C25.8512996,11.0252637 25.7759203,11.2343088 25.7253205,11.4388789 C25.5487127,12.1528931 25.5424961,12.8856342 25.5202611,13.6146983 C25.5051969,14.1080095 25.5173986,14.6021473 25.5178034,15.0958575 Z M28.8510299,22.4770261 C28.6477343,22.6620143 28.4645919,22.8363705 28.273209,23.0014062 C27.6655775,23.5254157 26.9441109,23.7956295 26.154031,23.8980143 C25.5044162,23.9821568 24.8585891,23.963715 24.2264673,23.7708884 C23.1563825,23.4444086 22.3878147,22.7628314 21.8583672,21.8046556 C21.4732592,21.1076865 21.2444324,20.3563325 21.1581525,19.5728551 C21.0840744,18.900171 21.0463414,18.2209026 21.0402405,17.544114 C21.0244244,15.7916295 21.0200006,14.0387458 21.0402405,12.2863468 C21.0535121,11.1370546 21.2013214,10.0034679 21.6981248,8.94339192 C22.2677919,7.72782898 23.1638712,6.86736342 24.5224039,6.59102138 C25.867,6.31750119 27.1287569,6.5335867 28.231775,7.3927981 C28.3932317,7.51852732 28.5293886,7.67586698 28.6767063,7.81912589 C28.7134852,7.85492637 28.7481244,7.89286461 28.8021071,7.9487886 C28.8523889,7.86635629 28.8964541,7.80151069 28.9330305,7.7328171 C29.0739872,7.46790499 29.2154064,7.2031639 29.3504645,6.93534442 C29.3993584,6.8384038 29.4642129,6.79570546 29.5759951,6.79604751 C30.4865894,6.79889786 31.3972125,6.7992114 32.3078356,6.79590499 C32.438441,6.79542043 32.4969633,6.84210926 32.4857446,6.97125891 C32.4824484,7.00896912 32.4853109,7.0472209 32.4853109,7.08521615 C32.4853109,12.5188219 32.4853109,17.9524276 32.4852819,23.3860618 C32.4852819,23.4335487 32.4835182,23.4810926 32.4851085,23.5285226 C32.4886071,23.6310214 32.4385277,23.6732352 32.3357667,23.6731211 C31.4106865,23.6718955 30.4856352,23.6715819 29.5605839,23.6736627 C29.4581699,23.6738907 29.4030016,23.627772 29.3627531,23.5406081 C29.2191363,23.2294347 29.0719343,22.9198575 28.9249057,22.6102518 C28.9013406,22.5606841 28.8716747,22.5139667 28.8510299,22.4770261 Z M84.1113453,24 C84.2516658,23.9770261 84.3915236,23.9506603 84.5323935,23.9315914 C85.5873562,23.7889026 86.4729108,23.3370356 87.1674004,22.5339762 C87.2025601,22.4933302 87.2447748,22.4586698 87.2965601,22.4088171 C87.3375893,22.4766556 87.368672,22.5234869 87.3952152,22.5726841 C87.5649993,22.8870499 87.7380507,23.1998195 87.9006062,23.5178052 C87.9583767,23.6308219 88.0328018,23.6750024 88.1605157,23.6744323 C89.0519109,23.6705843 89.943364,23.6726651 90.8347592,23.6721805 C91.0252458,23.6720665 91.0385752,23.6586413 91.0386041,23.467867 C91.0387776,17.9767696 91.0388065,12.4857007 91.0385174,6.99463183 C91.0385174,6.81078385 91.0243494,6.79607601 90.8440117,6.796019 C89.4900186,6.79544893 88.1360254,6.79547743 86.7820323,6.79593349 C86.5997284,6.796019 86.5852424,6.81175297 86.5834208,6.9911829 C86.5829003,7.04342993 86.5834208,7.09567696 86.5833051,7.14792399 C86.5736478,10.7621188 86.5666216,14.376342 86.5507188,17.9905083 C86.5488105,18.4175487 86.4786358,18.8412257 86.3346432,19.2484846 C86.174661,19.7010926 85.8852301,19.9979857 85.3699794,20.0108409 C85.0247731,20.0194489 84.7069195,19.9376437 84.5286058,19.6194299 C84.4161874,19.4188504 84.3293871,19.1962375 84.2759537,18.9730831 C84.0866815,18.1825938 84.0802336,17.3718385 84.0764169,16.5675249 C84.0613816,13.3850736 84.0692173,10.2024798 84.0684366,7.01994299 C84.0683788,6.80200475 84.0622779,6.79579097 83.8416916,6.79573397 C82.5840405,6.79550594 81.3264472,6.79559145 80.0687961,6.79561995 C79.9724541,6.79561995 79.8758229,6.80015202 79.77977,6.79482185 C79.6532126,6.78780998 79.6033935,6.8447886 79.6122702,6.96507363 C79.6161157,7.01703563 79.6127039,7.06953919 79.6127039,7.12178622 C79.6127039,10.6843325 79.6086559,14.2468789 79.6166651,17.8094252 C79.6179952,18.3964561 79.6449143,18.9862233 79.7080917,19.5696627 C79.800328,20.4204941 80.0289813,21.239658 80.459976,21.9910689 C81.0803587,23.0726081 81.9927166,23.7514774 83.2571915,23.9362945 C83.3691761,23.9526841 83.479715,23.9785368 83.59089,24 L84.1113453,24 Z M103.830815,0 C103.835586,0.080152019 103.844462,0.160304038 103.844462,0.240456057 C103.845128,7.94072209 103.84507,15.6409881 103.84507,23.3412542 C103.84507,23.3935012 103.848626,23.4460048 103.844462,23.4979667 C103.834198,23.6261473 103.889858,23.6746603 104.021475,23.6743753 C105.390012,23.6715534 106.75852,23.6715249 108.127057,23.6743753 C108.260814,23.6746603 108.311963,23.6219287 108.301092,23.4955439 C108.297015,23.4483705 108.300455,23.4005986 108.3006,23.3531116 C108.309419,19.8669264 108.315635,16.3807696 108.33096,12.8946413 C108.332608,12.5214442 108.372885,12.1466223 108.421635,11.7759335 C108.465671,11.4410451 108.567275,11.1215772 108.757704,10.8298432 C109.079432,10.3368741 110.129711,10.2595154 110.437936,10.9549169 C110.505162,11.1064703 110.567819,11.2627838 110.6072,11.4229739 C110.772618,12.095829 110.795344,12.7849026 110.809252,13.4718385 C110.825473,14.2695677 110.813416,15.067867 110.813445,15.8659097 C110.813502,18.3930926 110.813416,20.920247 110.81356,23.4474014 C110.813589,23.6549929 110.826109,23.672209 110.996818,23.6722945 C112.370155,23.6729786 113.743521,23.6726651 115.116857,23.6726081 C115.136114,23.6726081 115.16179,23.6794774 115.1735,23.6699857 C115.216062,23.6354109 115.268252,23.6016057 115.289417,23.5553159 C115.309426,23.511677 115.295431,23.4527031 115.295431,23.4004846 C115.295518,19.9707363 115.298149,16.5409881 115.293031,13.1112684 C115.292135,12.5187363 115.273341,11.9253207 115.236071,11.3339287 C115.185037,10.523715 115.014328,9.73564846 114.691414,8.98554869 C114.301535,8.07993349 113.71796,7.33770071 112.807366,6.8872019 C112.113397,6.54384798 111.377155,6.43271259 110.604829,6.50898812 C109.837851,6.5847791 109.140528,6.82284086 108.538477,7.30728741 C108.476745,7.35696912 108.413886,7.40528266 108.316908,7.48147268 C108.309795,7.36902613 108.301236,7.29668409 108.301207,7.22434204 C108.300484,4.8871924 108.300484,2.55004276 108.30112,0.212893112 C108.30112,0.14191924 108.30858,0.0709738717 108.312513,0 L103.830815,0 Z M6.95325273,15.1184608 L6.9911303,15.1169501 C6.94958063,14.1081805 6.91575104,13.0989834 6.8624333,12.0908409 C6.84262708,11.7166746 6.76614908,11.3470689 6.60596453,11.0014632 C6.50031212,10.7735487 6.34544778,10.5934062 6.096063,10.5066698 C5.56196029,10.3209121 5.05633805,10.5205511 4.84832945,11.0383468 C4.73617135,11.3174537 4.64630609,11.6182518 4.62039898,11.9155154 C4.5492701,12.731601 4.49326334,13.5504798 4.47620397,14.3691591 C4.45712062,15.284266 4.4793267,16.2005701 4.49945097,17.1159905 C4.51017813,17.6033729 4.54392098,18.0909264 4.58714768,18.5766841 C4.61704494,18.9127411 4.69413014,19.2419287 4.86631407,19.5413872 C4.99492434,19.7650546 5.18405198,19.9122185 5.4408388,19.9554014 C5.5674829,19.9766936 5.70005441,19.9666888 5.82990798,19.9658052 C6.05234476,19.964266 6.24216634,19.883943 6.39827399,19.7269169 C6.59867816,19.5253397 6.68695315,19.2694632 6.74848252,19.004095 C6.91673412,18.2784513 6.92766368,17.5373302 6.9499276,16.7989739 C6.96678457,16.2392494 6.95325273,15.6786413 6.95325273,15.1184608 Z M4.45278349,0 C4.44882225,0.0709738717 4.4413913,0.14191924 4.4413913,0.212893112 C4.4407841,2.52153919 4.44075519,4.83021378 4.44142022,7.13885986 C4.44144913,7.21695962 4.44948727,7.29505938 4.45590622,7.4112399 C4.53761769,7.3559715 4.58885361,7.32578622 4.63505847,7.28941568 C5.246709,6.80827553 5.95368958,6.58312589 6.72422352,6.50861758 C7.46491803,6.43698812 8.17528157,6.53008076 8.85117941,6.83974347 C9.72094681,7.23822328 10.3132827,7.90691686 10.7238351,8.74420903 C11.0756628,9.46172922 11.2751996,10.2250546 11.3448249,11.0148599 C11.4009473,11.651829 11.4277797,12.2929026 11.4318855,12.93238 C11.4431909,14.6994299 11.4443475,16.4666508 11.4322614,18.2336722 C11.4260159,19.147639 11.3151011,20.0519145 11.0290532,20.9269739 C10.7205389,21.8706698 10.233653,22.6980143 9.3932046,23.2819952 C8.79025723,23.7009691 8.11534248,23.9077625 7.37782853,23.9344988 C6.50927552,23.9659667 5.68201196,23.8212257 4.91182499,23.4114584 C4.49141283,23.187791 4.13307942,22.887848 3.82207851,22.5315534 C3.78532859,22.4895107 3.7453692,22.4501758 3.69017203,22.391943 C3.6511668,22.4545083 3.61837813,22.4981188 3.59495764,22.5462043 C3.43639229,22.8714869 3.27672819,23.196342 3.12435047,23.5244466 C3.07617945,23.628171 3.01329111,23.6751734 2.89349967,23.6746888 C1.9923893,23.6709834 1.09127892,23.6710689 0.190168552,23.6744038 C0.0589270958,23.6748884 0.00231313428,23.6272304 0.0132716079,23.4983088 C0.0176954772,23.4464323 0.0139077199,23.3938432 0.0139077199,23.3415962 C0.0139077199,15.6508219 0.0139655482,7.96004751 0.0133294363,0.269273159 C0.0133294363,0.179515439 0.00465518274,0.0897577197 0,0 L4.45278349,0 Z M52.8978824,15.3046746 C52.8938055,14.2960475 52.9326661,13.1416247 52.7810113,11.9937862 C52.7305271,11.611696 52.6653835,11.2309739 52.463736,10.8917245 C52.1054315,10.2888171 51.1828957,10.2884751 50.8374869,10.8986793 C50.7337139,11.0820143 50.6656789,11.291772 50.6173633,11.4976532 C50.4327462,12.2842945 50.4333245,13.0896912 50.4199084,13.8895867 C50.3961987,15.303734 50.3877558,16.7193064 50.5054654,18.1305178 C50.5367795,18.5060808 50.6073011,18.88438 50.7125488,19.2465463 C50.8682805,19.7824988 51.1581741,19.9591069 51.7245739,19.9691686 C52.1384515,19.9765226 52.4097532,19.7853207 52.5761543,19.4287981 C52.6262047,19.3215677 52.6645449,19.207639 52.6956277,19.0934537 C52.8580097,18.4972162 52.8768618,17.8838765 52.8940946,17.2730166 C52.9112696,16.6654347 52.8978824,16.0569691 52.8978824,15.3046746 Z M57.3946443,0 C57.3906831,0.0947173397 57.3832521,0.189434679 57.3832521,0.284152019 C57.3826738,7.98438955 57.3827317,15.6846556 57.3827028,23.3849216 C57.3827028,23.6726936 57.382616,23.6727221 57.0901491,23.6727506 C56.2372387,23.6727506 55.3842993,23.6697007 54.5314178,23.6756295 C54.3846205,23.6766556 54.3029958,23.6286841 54.2435771,23.4965416 C54.1030832,23.184057 53.9497223,22.8771591 53.8002939,22.5686366 C53.7742711,22.5148504 53.741974,22.4639715 53.7125972,22.4117815 L53.6465283,22.3684561 C53.6234837,22.4160285 53.6092579,22.4708124 53.5760644,22.5101188 C52.9446655,23.2581663 52.1279267,23.6901378 51.1649978,23.8590214 C50.4021261,23.9928171 49.6432157,23.9905083 48.8996008,23.7383943 C47.9178199,23.4055297 47.2279565,22.7472969 46.7483281,21.8576437 C46.351828,21.1221093 46.133497,20.3302233 46.0499062,19.5074109 C45.9905743,18.9233159 45.9635973,18.3340333 45.9606192,17.7468599 C45.9506727,15.7897767 45.9389046,13.8323515 45.9663442,11.8756105 C45.9817844,10.7771401 46.1804248,9.70212827 46.680322,8.70356295 C47.1874478,7.69060333 47.9468787,6.93822328 49.076411,6.64432304 C50.403167,6.29911639 51.6543992,6.47344418 52.7730309,7.30894062 C52.7997187,7.32886461 52.8278522,7.34724941 52.8568242,7.36375297 C52.8681008,7.37016627 52.8835988,7.36939667 52.9156935,7.37532542 C52.9197415,7.32168171 52.926652,7.27257007 52.9266809,7.22342993 C52.9272013,4.86253682 52.9272303,2.5016152 52.9265363,0.14072209 C52.9265074,0.0938052257 52.9176886,0.046888361 52.9129467,0 L57.3946443,0 Z"></path>
                    </g>
                    <g id="FDC-BrandCrush-IconDevelopment_Logo_Icon-Colour-1" transform="translate(117.000000, 4.800000)" fill-rule="nonzero">
                        <path d="M1.64961637,15.8680076 C0.738558405,15.8680076 1.11572422e-16,16.5561468 0,17.4050095 C-1.11572422e-16,18.2538722 0.738558405,18.9420114 1.64961637,18.9420114 C2.56067433,18.9420114 3.29923274,18.2538722 3.29923274,17.4050095 C3.29923274,16.5561468 2.56067433,15.8680076 1.64961637,15.8680076" id="Shape"></path>
                        <path d="M21.0194118,4.65711575 C20.6916607,3.62045197 20.129144,2.66132093 19.3697954,1.84440228 C18.1985678,0.673206831 16.3509974,0.335066414 16.2718159,0.30740038 L16.1662404,0.30740038 C16.1662404,0.30740038 16.0573657,0.288956357 14.2823785,2.45920304 L4.71460358,14.1404175 C4.71460358,14.1404175 2.93961637,16.3106641 5.37445013,14.7828843 L21.0853964,4.88766603 L21.0194118,4.65711575 Z" id="Shape"></path>
                        <path d="M29.9900256,12.987666 C29.7303408,11.5624095 29.0713818,10.2263007 28.0797698,9.11442125 L27.997289,9.03142315 C27.997289,9.03142315 27.9148082,8.94842505 25.1698465,9.89214421 L6.067289,16.4428463 C6.067289,16.4428463 3.31902813,17.3834915 6.2487468,17.3865655 L28.9969565,17.3865655 L29.102532,17.2420873 C29.9532697,15.9705897 30.2704648,14.4512897 29.9933248,12.97537" id="Shape"></path>
                        <path d="M7.1956266,1.41404175 C7.14283887,1.32796964 6.63475703,0.562542694 4.76409207,0.147552182 C2.89342711,-0.26743833 1.8442711,0.33199241 1.79478261,0.359658444 L1.71560102,0.408842505 C1.71560102,0.408842505 1.63641944,0.458026565 1.6430179,3.17544592 L1.66611253,12.94463 C1.66611253,12.94463 1.66611253,15.6712713 2.68557545,13.1137002 L7.27480818,1.5370019 L7.1956266,1.41404175 Z" id="Shape"></path>
                    </g>
                </g>
                <path d="M147.539204,21.9309264 C147.437744,21.9286461 147.385207,21.9699762 147.389429,22.0737007 C147.391395,22.1210166 147.391164,22.1685036 147.389371,22.215791 C147.385872,22.3078005 147.424733,22.3668314 147.522636,22.3589074 C147.640317,22.3493587 147.654485,22.4096152 147.653155,22.5048456 C147.648991,22.8032494 147.651709,23.1017957 147.651709,23.400285 C147.651738,23.7062138 147.651796,23.7011116 147.959212,23.7035059 C148.096178,23.7046176 148.147906,23.6566176 148.145563,23.5209121 C148.139694,23.1798955 148.14565,22.8387078 148.142672,22.4976057 C148.141891,22.4071924 148.160339,22.351696 148.26868,22.3594489 C148.364704,22.3663183 148.409203,22.3140428 148.405791,22.2197815 C148.404085,22.1724656 148.403883,22.1249786 148.405936,22.0776627 C148.410302,21.9766746 148.364357,21.9287316 148.260093,21.9310404 C148.139983,21.9336912 148.019787,21.931639 147.899648,21.9315819 C147.77951,21.9315249 147.659285,21.9336057 147.539204,21.9309264 Z" id="Path"></path>
                <path d="M150.326415,21.9192399 C150.158251,21.9232589 149.990028,21.9322375 149.821979,21.9295297 C149.712394,21.9278195 149.653062,21.9679525 149.627993,22.0745843 C149.590029,22.236171 149.544518,22.396076 149.498747,22.555753 C149.484203,22.6065748 149.458817,22.6543753 149.438374,22.7035724 C149.425536,22.7028884 149.412756,22.7022043 149.399947,22.7014632 C149.366089,22.5854252 149.332693,22.4692447 149.298227,22.3533492 C149.150765,21.8578717 149.275356,21.9419572 148.728416,21.9293017 C148.587575,21.9260523 148.544145,21.9823753 148.545765,22.1149454 C148.550969,22.5466603 148.547673,22.9784323 148.547673,23.4101758 C148.547673,23.7135677 148.553022,23.715962 148.865093,23.7023373 C148.967276,23.6978907 149.015186,23.6594109 149.013509,23.5565416 C149.010878,23.3952969 149.012093,23.2339382 149.014232,23.0726366 C149.014839,23.0249786 149.023976,22.9774062 149.029181,22.9297767 C149.041961,22.928323 149.054683,22.9268694 149.067434,22.9254442 C149.083395,22.9614442 149.103057,22.9963325 149.114564,23.0336722 C149.157993,23.1742803 149.201596,23.3149454 149.239503,23.4570641 C149.264022,23.5491306 149.316125,23.5871259 149.413942,23.5909739 C149.536104,23.5957625 149.598472,23.5512114 149.626953,23.431753 C149.665408,23.2704513 149.720461,23.1129976 149.768401,22.9538907 C149.78572,22.9568836 149.80304,22.9598765 149.820388,22.9628694 C149.820388,23.1553254 149.823309,23.347867 149.81929,23.540266 C149.816919,23.6543088 149.862892,23.7050736 149.981383,23.7025938 C150.096287,23.700171 150.211395,23.7103468 150.326415,23.7149644 L150.326415,21.9192399 Z" id="Path"></path>
            </g>
        </g>
    </g>
</svg>