<?xml version="1.0" encoding="UTF-8"?>
<svg width="317px" height="410px" viewBox="0 0 317 410" version="1.1" xmlns="http://www.w3.org/2000/svg" xmlns:xlink="http://www.w3.org/1999/xlink">
    <!-- Generator: sketchtool 50.2 (55047) - http://www.bohemiancoding.com/sketch -->
    <title>F9DF38ED-2F2F-4CF8-A187-296FE0CCFEDA</title>
    <desc>Created with sketchtool.</desc>
    <defs>
        <polygon id="path-1" points="0 0.395 316.5848 0.395 316.5848 409.9998 0 409.9998"></polygon>
    </defs>
    <g id="Symbols" stroke="none" stroke-width="1" fill="none" fill-rule="evenodd">
        <g id="Report">
            <g id="Group-3" transform="translate(0.000000, -0.395000)">
                <mask id="mask-2" fill="white">
                    <use xlink:href="#path-1"></use>
                </mask>
                <g id="Clip-2"></g>
                <path d="M10.2398,392.2078 L10.2398,18.1868 C10.2398,14.0238 13.6238,10.6348 17.7918,10.6348 L76.3698,10.6348 L76.3698,28.6268 L35.9268,28.6268 C33.0958,28.6268 30.8068,30.9198 30.8068,33.7468 L30.8068,373.2328 C30.8068,376.0598 33.0958,378.3538 35.9268,378.3538 L280.6578,378.3538 C283.4888,378.3538 285.7778,376.0598 285.7778,373.2328 L285.7778,33.7468 C285.7778,30.9198 283.4888,28.6268 280.6578,28.6268 L240.2158,28.6268 L240.2158,10.6398 L298.7928,10.6398 C302.9558,10.6398 306.3448,14.0298 306.3448,18.1918 L306.3448,392.2128 C306.3448,396.3758 302.9608,399.7658 298.7928,399.7658 L17.7918,399.7658 C13.6238,399.7598 10.2398,396.3708 10.2398,392.2078 Z M86.6098,28.6268 L86.6098,10.6398 L229.9748,10.6398 L229.9748,28.6318 L86.6098,28.6318 L86.6098,28.6268 Z M229.9748,45.5588 C229.9748,52.6548 224.0668,58.4248 216.8058,58.4248 L99.7838,58.4248 C92.5238,58.4248 86.6158,52.6548 86.6158,45.5588 L86.6158,38.8668 L229.9748,38.8668 L229.9748,45.5588 Z M99.7838,68.6648 L216.8058,68.6648 C229.7138,68.6648 240.2158,58.3018 240.2158,45.5588 L240.2158,38.8668 L275.5328,38.8668 L275.5328,368.1128 L41.0468,368.1128 L41.0468,38.8668 L76.3698,38.8668 L76.3698,45.5588 C76.3698,58.3018 86.8708,68.6648 99.7838,68.6648 Z M316.5848,392.2078 L316.5848,18.1868 C316.5848,8.3768 308.6028,0.3948 298.7928,0.3948 L17.7918,0.3948 C7.9818,0.3948 -0.0002,8.3768 -0.0002,18.1868 L-0.0002,392.2078 C-0.0002,402.0188 7.9818,409.9998 17.7918,409.9998 L298.7988,409.9998 C308.6078,409.9998 316.5848,402.0188 316.5848,392.2078 Z" id="Fill-1" fill="#971B50" mask="url(#mask-2)"></path>
            </g>
            <path d="M90.2554,110.7659 C96.3324,110.7659 101.2684,115.7069 101.2684,121.7789 C101.2684,127.8569 96.3274,132.7969 90.2554,132.7969 C84.1834,132.7969 79.2374,127.8569 79.2374,121.7789 C79.2374,115.7069 84.1834,110.7659 90.2554,110.7659 M68.9974,121.7789 C68.9974,133.5039 78.5304,143.0369 90.2554,143.0369 C101.9754,143.0369 111.5084,133.5039 111.5084,121.7789 C111.5084,110.0589 101.9754,100.5259 90.2554,100.5259 C78.5304,100.5259 68.9974,110.0589 68.9974,121.7789" id="Fill-4" fill="#971B50"></path>
            <path d="M135.8335,126.8993 L242.5805,126.8993 C245.4115,126.8993 247.7005,124.6053 247.7005,121.7793 C247.7005,118.9533 245.4115,116.6593 242.5805,116.6593 L135.8335,116.6593 C133.0015,116.6593 130.7135,118.9533 130.7135,121.7793 C130.7135,124.6053 133.0015,126.8993 135.8335,126.8993" id="Fill-6" fill="#971B50"></path>
            <path d="M90.2554,196.7152 C84.1774,196.7152 79.2374,191.7752 79.2374,185.7022 C79.2374,179.6302 84.1834,174.6892 90.2554,174.6892 C96.3274,174.6892 101.2684,179.6302 101.2684,185.7022 C101.2684,191.7752 96.3324,196.7152 90.2554,196.7152 M90.2554,164.4442 C78.5304,164.4442 68.9974,173.9772 68.9974,185.6972 C68.9974,197.4172 78.5304,206.9502 90.2554,206.9502 C101.9754,206.9502 111.5084,197.4172 111.5084,185.6972 C111.5084,173.9772 101.9754,164.4442 90.2554,164.4442" id="Fill-8" fill="#971B50"></path>
            <path d="M135.8335,190.8221 L242.5805,190.8221 C245.4115,190.8221 247.7005,188.5291 247.7005,185.7021 C247.7005,182.8761 245.4115,180.5821 242.5805,180.5821 L135.8335,180.5821 C133.0015,180.5821 130.7135,182.8761 130.7135,185.7021 C130.7135,188.5291 133.0015,190.8221 135.8335,190.8221" id="Fill-10" fill="#971B50"></path>
            <path d="M90.2554,265.7533 C84.1774,265.7533 79.2374,260.8133 79.2374,254.7353 C79.2374,248.6623 84.1834,243.7223 90.2554,243.7223 C96.3274,243.7223 101.2684,248.6623 101.2684,254.7353 C101.2734,260.8133 96.3324,265.7533 90.2554,265.7533 M90.2554,233.4823 C78.5304,233.4823 68.9974,243.0163 68.9974,254.7353 C68.9974,266.4603 78.5304,275.9933 90.2554,275.9933 C101.9754,275.9933 111.5084,266.4603 111.5084,254.7353 C111.5134,243.0163 101.9754,233.4823 90.2554,233.4823" id="Fill-12" fill="#971B50"></path>
            <path d="M135.8335,259.8548 L242.5805,259.8548 C245.4115,259.8548 247.7005,257.5618 247.7005,254.7358 C247.7005,251.9088 245.4115,249.6158 242.5805,249.6158 L135.8335,249.6158 C133.0015,249.6158 130.7135,251.9088 130.7135,254.7358 C130.7135,257.5618 133.0015,259.8548 135.8335,259.8548" id="Fill-14" fill="#971B50"></path>
            <path d="M90.2554,329.6712 C84.1774,329.6712 79.2374,324.7312 79.2374,318.6582 C79.2374,312.5812 84.1834,307.6402 90.2554,307.6402 C96.3274,307.6402 101.2684,312.5812 101.2684,318.6582 C101.2734,324.7312 96.3324,329.6712 90.2554,329.6712 M90.2554,297.4002 C78.5304,297.4002 68.9974,306.9342 68.9974,318.6582 C68.9974,330.3782 78.5304,339.9112 90.2554,339.9112 C101.9754,339.9112 111.5084,330.3782 111.5084,318.6582 C111.5134,306.9342 101.9754,297.4002 90.2554,297.4002" id="Fill-16" fill="#971B50"></path>
            <path d="M135.8335,323.7786 L242.5805,323.7786 C245.4115,323.7786 247.7005,321.4846 247.7005,318.6586 C247.7005,315.8326 245.4115,313.5386 242.5805,313.5386 L135.8335,313.5386 C133.0015,313.5386 130.7135,315.8326 130.7135,318.6586 C130.7135,321.4846 133.0015,323.7786 135.8335,323.7786" id="Fill-18" fill="#971B50"></path>
        </g>
    </g>
</svg>