<?xml version="1.0" encoding="UTF-8"?>
<svg width="79px" height="69px" viewBox="0 0 79 69" version="1.1" xmlns="http://www.w3.org/2000/svg" xmlns:xlink="http://www.w3.org/1999/xlink">
    <!-- Generator: sketchtool 50.2 (55047) - http://www.bohemiancoding.com/sketch -->
    <title>A13F8AE9-AE72-4C4A-B6EE-BF2C9D0DC312</title>
    <desc>Created with sketchtool.</desc>
    <defs></defs>
    <g id="Symbols" stroke="none" stroke-width="1" fill="none" fill-rule="evenodd" stroke-linecap="round" stroke-linejoin="round">
        <g id="Speech_Bubbles" stroke="#DB0A5B" stroke-width="2">
            <path d="M36.8315,37.0991 C36.9785,36.9541 37.1235,36.8081 37.2645,36.6611 C45.1345,28.4741 45.1075,15.4591 37.0995,7.3051 C28.9455,-0.9959 15.6065,-1.1159 7.3055,7.0371 C-0.9965,15.1911 -1.1155,28.5301 7.0375,36.8311 C12.8145,42.7131 21.1955,44.4881 28.5425,42.1221" id="Stroke-1"></path>
            <path d="M23.0942,43.1221 C23.4252,46.3711 24.3252,49.4501 25.6932,52.2611" id="Stroke-3"></path>
            <path d="M34.1616,62.3906 C38.6816,65.6976 44.2546,67.6496 50.2836,67.6496 C65.3776,67.6496 77.6146,55.4126 77.6146,40.3186 C77.6146,25.2236 65.3776,12.9876 50.2836,12.9876 C47.2786,12.9876 44.3876,13.4726 41.6836,14.3676" id="Stroke-5"></path>
            <path d="M28.8979,42.0034 C28.8979,42.0034 34.5449,48.8544 41.4109,45.5624 C41.4109,45.5624 33.9349,40.6374 36.8319,37.0994" id="Stroke-7"></path>
            <path d="M34.1616,62.3906 C34.1616,62.3906 23.2446,67.8826 16.7736,60.8496 C16.7736,60.8496 27.7806,58.5886 26.0506,53.1166" id="Stroke-9"></path>
        </g>
    </g>
</svg>