<?xml version="1.0" encoding="UTF-8"?>
<svg width="72px" height="72px" viewBox="0 0 72 72" version="1.1" xmlns="http://www.w3.org/2000/svg" xmlns:xlink="http://www.w3.org/1999/xlink">
    <!-- Generator: sketchtool 50.2 (55047) - http://www.bohemiancoding.com/sketch -->
    <title>EFD9DA59-B125-49E6-B8D5-5BBBCEEB1A85</title>
    <desc>Created with sketchtool.</desc>
    <defs></defs>
    <g id="Symbols" stroke="none" stroke-width="1" fill="none" fill-rule="evenodd">
        <g id="Sucess" fill="#19A2B8">
            <g>
                <path d="M36,70 C17.252,70 2,54.748 2,36 C2,17.252 17.252,2 36,2 C54.748,2 70,17.252 70,36 C70,54.748 54.748,70 36,70 M36,0 C16.149,0 0,16.149 0,36 C0,55.851 16.149,72 36,72 C55.851,72 72,55.851 72,36 C72,16.149 55.851,0 36,0" id="Fill-1"></path>
                <path d="M57.6709,19.5322 L27.2909,49.9122 L14.3299,36.9502 C13.9389,36.5602 13.3059,36.5602 12.9159,36.9502 C12.5249,37.3412 12.5249,37.9742 12.9159,38.3652 L26.5839,52.0332 C26.7789,52.2282 27.0349,52.3262 27.2909,52.3262 C27.5469,52.3262 27.8029,52.2282 27.9979,52.0332 L59.0849,20.9462 C59.4759,20.5552 59.4759,19.9232 59.0849,19.5322 C58.6939,19.1412 58.0619,19.1412 57.6709,19.5322" id="Fill-3"></path>
            </g>
        </g>
    </g>
</svg>