<?xml version="1.0" encoding="UTF-8"?>
<svg width="40px" height="40px" viewBox="0 0 40 40" version="1.1" xmlns="http://www.w3.org/2000/svg" xmlns:xlink="http://www.w3.org/1999/xlink">
    <!-- Generator: sketchtool 50.2 (55047) - http://www.bohemiancoding.com/sketch -->
    <title>6D57FE44-C83C-4DEF-BA57-BAF3E5E29037</title>
    <desc>Created with sketchtool.</desc>
    <defs></defs>
    <g id="Symbols" stroke="none" stroke-width="1" fill="none" fill-rule="evenodd">
        <g id="Footer" transform="translate(-1055.000000, -354.000000)">
            <g id="SM/Twitter">
                <g transform="translate(1055.000000, 354.000000)">
                    <g id="Group">
                        <path d="M40,19.9998047 C40,31.0456594 31.0456594,40 19.9998047,40 C8.95424294,40 0,31.0456594 0,19.9998047 C0,8.95424294 8.95424294,0 19.9998047,0 C31.0456594,0 40,8.95424294 40,19.9998047 Z" id="Fill-1" fill="#DB0A5B"></path>
                        <path d="M32.1904762,14.4229729 C31.3360464,14.8012632 30.4164606,15.0573143 29.4520739,15.1716766 C30.4366209,14.5824577 31.1921967,13.6506381 31.5490451,12.5384255 C30.6276088,13.0838833 29.606929,13.4796781 28.5214827,13.6932323 C27.6518595,12.7686089 26.4127269,12.1904762 25.0404579,12.1904762 C22.4078245,12.1904762 20.2727726,14.3222251 20.2727726,16.9510028 C20.2727726,17.3240418 20.3149438,17.6871617 20.396754,18.035889 C16.4345098,17.8376026 12.9214427,15.9424554 10.5695937,13.0615165 C10.1594713,13.7642225 9.92397469,14.5824577 9.92397469,15.455054 C9.92397469,17.1059171 10.7663278,18.5639396 12.0449046,19.4170865 C11.2639092,19.3927748 10.5281042,19.1785399 9.8856018,18.8210603 C9.88521223,18.8415794 9.88521223,18.8617095 9.88521223,18.8814506 C9.88521223,21.1880494 11.5294028,23.112079 13.7101321,23.548912 C13.3103334,23.6583147 12.8884264,23.7160794 12.4543453,23.7160794 C12.1461935,23.7160794 11.8478783,23.6868081 11.5572573,23.6313773 C12.1636268,25.522343 13.92391,26.8986781 16.010655,26.9373823 C14.3789307,28.2145256 12.3234489,28.9749963 10.089056,28.9749963 C9.70484018,28.9749963 9.32442266,28.9526295 8.95238095,28.9085766 C11.0611367,30.2597248 13.5678408,31.047619 16.259884,31.047619 C25.0294524,31.047619 29.8252843,23.7935851 29.8252843,17.5021981 C29.8252843,17.2959375 29.8207069,17.0903576 29.8111623,16.8868199 C30.7437014,16.2155246 31.5517721,15.3775482 32.1904762,14.4229729 Z" id="Fill-4" fill="#FFFFFF"></path>
                    </g>
                </g>
            </g>
        </g>
    </g>
</svg>